<?xml version="1.0" standalone="no"?>
<svg xmlns="http://www.w3.org/2000/svg" viewBox="0 0 63.32 40" width="63.32" height="40"><path fill="#a51423" fill-rule="nonzero" d="M14.48 30.52Q12.08 30.52 9.60 28.40L9.60 28.40L9.28 30L3.52 30L8.96 4.56L14.88 3.76L10.08 26.20Q11.20 27 12.36 27L12.36 27Q14.64 27 16.38 24.36Q18.12 21.72 19.08 17.64Q20.04 13.56 20.04 9.40L20.04 9.40Q20.04 5.48 18.50 3.66Q16.96 1.84 14.20 1.84L14.20 1.84Q11.20 1.84 8.82 3.02Q6.44 4.20 5.08 6.40Q3.72 8.60 3.72 11.56L3.72 11.56Q3.72 13.04 4 13.62Q4.28 14.20 4.28 14.28L4.28 14.28Q2.20 14.28 1.10 13.40Q0 12.52 0 10.56L0 10.56Q0 7.84 2.04 5.40Q4.08 2.96 7.50 1.48Q10.92 0 14.88 0L14.88 0Q20.36 0 22.96 3.24Q25.56 6.48 25.56 11.52L25.56 11.52Q25.56 16.08 24.02 20.50Q22.48 24.92 19.92 27.72Q17.36 30.52 14.48 30.52L14.48 30.52ZM30.68 30.16Q29.36 30.16 28.44 29.24Q27.52 28.32 27.52 27L27.52 27Q27.52 25.68 28.44 24.74Q29.36 23.80 30.68 23.80L30.68 23.80Q32 23.80 32.94 24.74Q33.88 25.68 33.88 27L33.88 27Q33.88 28.32 32.94 29.24Q32 30.16 30.68 30.16L30.68 30.16ZM59.16 40Q57.36 40 55.62 38.98Q53.88 37.96 51.20 35.84L51.20 35.84Q49.20 34.24 47.78 33.26Q46.36 32.28 44.70 31.60Q43.04 30.92 41.32 30.92L41.32 30.92Q40.72 30.92 40.40 30.96L40.40 30.96L46.36 3.24Q43.68 4.32 42.22 6.54Q40.76 8.76 40.76 11.96L40.76 11.96Q40.76 13.44 41.04 14.02Q41.32 14.60 41.32 14.68L41.32 14.68Q39.16 14.68 38.10 13.78Q37.04 12.88 37.04 10.80L37.04 10.80Q37.04 8.24 39.14 5.82Q41.24 3.40 44.52 1.90Q47.80 0.40 51.08 0.40L51.08 0.40Q51.64 0.40 52.68 0.48L52.68 0.48L46.52 29.20Q47.64 29.48 48.82 30.02Q50 30.56 51.68 31.48L51.68 31.48Q54.28 32.88 56.12 33.62Q57.96 34.36 59.96 34.36L59.96 34.36Q61.76 34.36 63.32 33.72L63.32 33.72Q63 36.64 61.90 38.32Q60.80 40 59.16 40L59.16 40ZM56.36 30.16Q55.04 30.16 54.12 29.24Q53.20 28.32 53.20 27L53.20 27Q53.20 25.68 54.12 24.74Q55.04 23.80 56.36 23.80L56.36 23.80Q57.68 23.80 58.62 24.74Q59.56 25.68 59.56 27L59.56 27Q59.56 28.32 58.62 29.24Q57.68 30.16 56.36 30.16L56.36 30.16Z" transform="translate(0 0) scale(1)"></path></svg>